<?xml version="1.0" encoding="UTF-8"?>
<svg id="Capa_1" data-name="Capa 1" xmlns="http://www.w3.org/2000/svg" viewBox="0 0 824.31 173.29">
  <defs>
    <style>
      .cls-1 {
        fill: #ffd000;
      }

      .cls-2 {
        fill: #1b294a;
      }
    </style>
  </defs>
  <path class="cls-1" d="M142.56,86.52h-25.72v-31.2h-31.32V29.59h57.04v56.93Zm28.47,85.63V1.12H0V114.88c0,31.64,25.63,57.27,57.26,57.27h113.77Z"/>
  <path class="cls-2" d="M503.43,100.09h-15.2v72.06h15.22V100.1h-.03Zm-79.39-.01h-15.31v72.06h15.31v-29.81h30.23v29.81h15.21V100.09h-7.43c-4.3,0-7.78,3.49-7.78,7.78v20.49h-30.23v-28.27Zm-110.81,0h-15.21v72.06h15.21V100.09Zm-58.94,14.09c10.59,0,15.63,3.08,15.63,10.37s-5.26,10.69-15.63,10.69h-11.21v-21.06h11.21Zm2.67-14.09h-29.2v72.06h15.31v-22.82h13.89c8.32,0,15.11-2.25,20.35-6.89,5.24-4.63,7.81-10.69,7.81-18.2s-2.57-13.26-7.71-17.58c-5.14-4.43-11.93-6.58-20.45-6.58m14.37-49.34c0,6.07-4.42,8.34-12.94,8.34h-15.31v-16.24h15.72c8.32,0,12.54,2.67,12.54,7.9m-1.74-28.15c0,4.94-4.01,7.42-11.93,7.42h-14.59V15.2h13.97c8.93,0,12.54,1.96,12.54,7.39m8.02,13.06c4.93-3.81,7.39-8.73,7.39-14.6,0-12.83-9.76-19.93-24.87-19.93h-32.37V73.16h34.11c7.51,0,13.47-1.95,17.98-5.75,4.62-3.91,6.89-9.05,6.89-15.31,0-6.68-3.08-12.12-9.14-16.44m59.58,9.76h-17.88l8.95-23.53,8.93,23.53Zm10.69,27.75h15.82L337.47,6.07c-1.17-2.99-4.03-4.95-7.24-4.95h-9.28l-28.17,72.04h15.83l5.65-14.18h27.85l5.75,14.18Zm16.99,25.8c-10.79,0-19.74,3.4-26.93,10.28-7.2,6.78-10.81,15.83-10.81,27.03s3.6,20.05,10.81,26.84c7.29,6.78,16.44,10.17,27.44,10.17,12.13,0,21.9-4.52,29.3-13.57l-10.18-10.79c-4.93,6.68-11.4,10.07-19.52,10.07-6.27,0-11.52-2.05-15.73-6.16-4.21-4.11-6.38-9.77-6.38-16.86s2.16-12.55,6.38-16.55c4.31-4.11,9.25-6.17,14.9-6.17s10.5,1.76,14.47,4.85c3.08,2.41,7.48,2.04,10.22-.75l4.71-4.82c-7.29-9.04-16.85-13.57-28.68-13.57m58.88-25.8h13.89V1.12h-15.21V49.93l-26.82-45c-1.4-2.37-3.95-3.81-6.67-3.81h-13.99V73.16h15.31V24.55l26.82,44.83c1.4,2.34,3.93,3.78,6.67,3.78m49.88-19.31c-4.21-4.12-6.38-9.77-6.38-16.86s2.16-12.54,6.38-16.53c4.31-4.12,9.24-6.17,14.89-6.17s10.61,1.81,14.61,4.96c3,2.38,7.38,1.86,10.07-.88l4.71-4.8c-7.29-9.05-16.85-13.57-28.66-13.57-10.79,0-19.73,3.39-26.92,10.27-7.19,6.78-10.79,15.82-10.79,27.02s3.6,20.05,10.79,26.82c7.29,6.78,16.43,10.18,27.43,10.18,12.13,0,21.89-4.52,29.29-13.57l-10.17-10.79c-4.94,6.68-11.4,10.08-19.52,10.08-6.26,0-11.51-2.06-15.72-6.16m62.57,46.24h-13.98v72.06h15.31v-48.62l26.83,44.85c1.41,2.33,3.93,3.77,6.67,3.77h13.9V100.09h-15.21v48.84l-26.84-45.04c-1.4-2.34-3.93-3.79-6.68-3.79m49.19-63c0,6.48-1.96,11.82-5.85,16.24-3.81,4.42-9.05,6.57-15.53,6.57s-11.91-2.15-15.82-6.57c-3.89-4.42-5.85-9.76-5.85-16.24s1.96-11.71,5.85-16.13c4.01-4.43,9.25-6.58,15.82-6.58s11.31,2.27,15.32,6.67c4.01,4.43,6.06,9.77,6.06,16.04m4.72,26.72c7.19-7.09,10.79-15.92,10.79-26.72s-3.6-19.52-10.79-26.51c-7.19-7.08-16.02-10.58-26.51-10.58s-19.22,3.5-26.3,10.58c-7.09,6.99-10.69,15.82-10.69,26.51s3.6,19.63,10.69,26.72c7.08,7,15.92,10.49,26.3,10.49s19.32-3.49,26.51-10.49m30.83,89.03c-4.21-4.11-6.38-9.77-6.38-16.86s2.16-12.55,6.38-16.55c4.33-4.11,9.25-6.17,14.92-6.17s10.61,1.81,14.6,4.96c3.02,2.38,7.39,1.87,10.08-.87l4.72-4.82c-7.31-9.04-16.86-13.57-28.69-13.57-10.79,0-19.74,3.4-26.94,10.28-7.18,6.78-10.79,15.83-10.79,27.03s3.61,20.05,10.79,26.84c7.31,6.78,16.46,10.17,27.45,10.17,12.13,0,21.9-4.52,29.3-13.57l-10.17-10.79c-4.94,6.68-11.42,10.07-19.54,10.07-6.27,0-11.52-2.05-15.73-6.16m105.02,19.32h15.21V100.09h-7.43c-4.29,0-7.78,3.49-7.78,7.78v20.49h-30.23v-28.27h-15.31v72.06h15.31v-29.81h30.23v29.81Zm71.85-27.75h-17.88l8.95-23.56,8.93,23.56Zm26.52,27.75l-26.23-67.12c-1.17-2.97-4.05-4.94-7.24-4.94h-9.29l-28.17,72.06h15.83l5.65-14.19h27.86l5.75,14.19h15.83Z"/>
  <polygon class="cls-2" points="142.99 87.71 116.38 87.71 116.38 55.44 83.98 55.44 83.98 28.82 142.99 28.82 142.99 87.71"/>
</svg>